<svg width="24" height="20" viewBox="0 0 24 20" fill="none" xmlns="http://www.w3.org/2000/svg">
<path d="M21.916 8.58381H5.11435L10.2568 2.40714C10.4973 2.11783 10.613 1.74485 10.5785 1.37025C10.5439 0.995643 10.362 0.650102 10.0727 0.409639C9.78337 0.169176 9.41039 0.0534879 9.03579 0.0880259C8.66119 0.122564 8.31564 0.304498 8.07518 0.593805L0.991849 9.0938C0.944193 9.16141 0.901578 9.23244 0.864349 9.3063C0.864349 9.37714 0.864349 9.41964 0.765183 9.49047C0.70097 9.65291 0.667349 9.82581 0.666016 10.0005C0.667349 10.1751 0.70097 10.348 0.765183 10.5105C0.765183 10.5813 0.765182 10.6238 0.864349 10.6946C0.901578 10.7685 0.944193 10.8395 0.991849 10.9071L8.07518 19.4071C8.20838 19.5671 8.37518 19.6957 8.56371 19.7838C8.75225 19.872 8.95789 19.9175 9.16601 19.9171C9.49702 19.9178 9.81781 19.8025 10.0727 19.5913C10.2161 19.4724 10.3347 19.3263 10.4216 19.1615C10.5085 18.9967 10.5621 18.8163 10.5792 18.6308C10.5963 18.4452 10.5766 18.2581 10.5213 18.0802C10.466 17.9022 10.3761 17.737 10.2568 17.5938L5.11435 11.4171H21.916C22.2917 11.4171 22.6521 11.2679 22.9177 11.0022C23.1834 10.7365 23.3327 10.3762 23.3327 10.0005C23.3327 9.62475 23.1834 9.26441 22.9177 8.99874C22.6521 8.73306 22.2917 8.58381 21.916 8.58381Z" fill="#FF9F00"/>
</svg>
