<svg width="390" height="844" viewBox="0 0 390 844" fill="none" xmlns="http://www.w3.org/2000/svg">
<g clip-path="url(#clip0_1909_4207)">
<rect width="390" height="844" fill="#FFFFFA"/>
<path opacity="0.3" d="M390 32.5349C390 152.585 231.917 175 141.932 175C51.9472 175 -21 77.6804 -21 -42.3694C-21 -162.419 178.629 -355.205 241.746 -115.805C345.964 -178.96 390 -87.5148 390 32.5349Z" fill="#F9CC58" fill-opacity="0.32"/>
<path opacity="0.3" d="M-125 487C-125 323.377 -21.2924 312 63 312C147.292 312 377 351.377 377 515C377 678.624 146 1016.65 86.875 690.356C-10.75 776.434 -125 650.623 -125 487Z" fill="#FF7373" fill-opacity="0.2"/>
<path opacity="0.3" d="M308 319.136C308 362.953 280.317 366 257.817 366C235.316 366 174 355.455 174 311.637C174 267.82 235.661 177.298 251.444 264.678C277.503 241.627 308 275.318 308 319.136Z" fill="#9CC555" fill-opacity="0.32"/>
<path d="M98.9986 136.818C81.3639 145.63 66.4904 160.143 57.9761 177.922C49.4618 195.701 47.4943 216.688 53.3822 235.526C59.27 254.363 73.0661 270.704 90.975 278.939C105.343 285.483 121.546 286.802 136.784 282.667C142.184 281.112 147.435 279.081 152.475 276.596C163.803 271.194 174.641 264.359 183.03 255.027C194.792 241.943 201.098 224.419 201.906 206.842C202.714 189.265 198.255 171.678 190.563 155.852C187.494 149.531 183.781 143.302 178.22 139.016C175.417 136.926 172.342 135.228 169.08 133.97C160.638 130.555 151.696 129.722 142.753 128.568C133.104 127.317 123.248 128.347 113.915 131.012C108.775 132.483 103.781 134.427 98.9986 136.818Z" fill="#FFD992"/>
<path d="M125.903 107.96C125.87 107.358 126.014 106.76 126.317 106.238C126.61 105.896 126.981 105.629 127.399 105.459C130.091 104.174 133.107 103.723 136.057 104.165L133.898 134.417C133.906 134.813 133.811 135.204 133.623 135.552C133.342 135.915 132.953 136.179 132.512 136.308C130.458 137.111 127.793 138.107 126.701 135.894C125.609 133.681 126.139 129.001 126.009 126.48C125.714 120.313 125.678 114.14 125.903 107.96Z" fill="#111111"/>
<path d="M121.766 127.774C119.472 122.622 113.863 119.553 108.264 118.842C102.664 118.13 97.0218 119.414 91.5669 120.862C86.112 122.31 80.3252 124.142 76.5635 128.404C77.3812 129.367 78.0066 130.492 78.7907 131.512C81.4108 134.863 85.0998 137.216 89.2435 138.179C93.3759 139.116 97.678 138.994 101.75 137.823C103.954 137.227 106.08 136.38 108.297 135.793C110.587 135.185 112.942 134.862 115.311 134.831C116.707 134.788 118.103 134.941 119.457 135.288C120.111 135.471 122.675 137.212 123.036 137.063C123.753 136.789 123.103 133.215 123.036 132.556C122.85 130.908 122.422 129.297 121.766 127.774Z" fill="#108729"/>
<path d="M184.45 161.774C184.233 161.635 183.99 161.541 183.736 161.499C183.482 161.457 183.223 161.467 182.973 161.528C182.896 161.544 182.823 161.573 182.756 161.615C182.694 161.658 182.64 161.712 182.598 161.774C182.464 162.014 182.383 162.28 182.358 162.555C182.333 162.829 182.365 163.105 182.453 163.366C182.621 164.116 182.902 164.836 183.285 165.502C183.463 165.814 183.728 166.146 184.084 166.132C184.198 166.12 184.307 166.08 184.403 166.016C184.498 165.953 184.577 165.867 184.632 165.766C184.742 165.566 184.817 165.348 184.854 165.122C185.099 163.958 185.671 162.567 184.45 161.774Z" fill="#E6B96C"/>
<path d="M187.509 167.767C187.482 167.841 187.469 167.92 187.47 167.998C187.514 168.595 187.722 169.168 188.072 169.653C188.171 169.83 188.284 169.999 188.408 170.158C188.498 170.291 188.636 170.384 188.793 170.418C188.86 170.423 188.927 170.414 188.99 170.391C189.053 170.369 189.11 170.334 189.159 170.288C189.325 170.135 189.428 169.926 189.447 169.701C189.464 169.476 189.44 169.249 189.375 169.033C189.269 168.575 189.026 168.16 188.678 167.844C188.389 167.613 187.73 167.243 187.509 167.767Z" fill="#E6B96C"/>
<path d="M183.05 172.992C183.233 173.457 183.467 173.9 183.747 174.314C183.838 174.444 183.992 174.584 184.142 174.521C184.198 174.489 184.244 174.443 184.276 174.387C184.902 173.449 184.334 172.135 183.766 171.303C183.492 170.904 182.987 170.288 182.708 171.014C182.463 171.659 182.795 172.419 183.05 172.992Z" fill="#E6B96C"/>
<path d="M188.822 178.855C188.814 178.976 188.832 179.098 188.876 179.212C188.919 179.325 188.986 179.428 189.072 179.514C189.177 179.576 189.3 179.601 189.421 179.586C189.542 179.57 189.655 179.514 189.741 179.427C189.906 179.248 190.016 179.024 190.058 178.783C190.216 177.987 190.196 177.166 190 176.378C189.924 176.007 189.794 175.098 189.366 174.935C188.197 174.555 188.788 178.35 188.822 178.855Z" fill="#E6B96C"/>
<path d="M183.021 179.832C182.773 180.098 182.581 180.41 182.453 180.751C182.062 181.567 181.798 182.438 181.669 183.334C181.535 184.234 181.704 185.153 182.15 185.946C182.533 186.535 183.057 187.02 183.675 187.355C183.703 187.377 183.736 187.393 183.771 187.402C183.806 187.41 183.842 187.41 183.877 187.403C183.918 187.388 183.953 187.361 183.978 187.326C184.59 186.529 184.944 185.564 184.993 184.56C185.137 183.347 185.152 182.121 185.036 180.904C185.028 180.548 184.932 180.2 184.757 179.889C184.653 179.763 184.522 179.66 184.375 179.587C184.228 179.515 184.066 179.475 183.902 179.469C183.738 179.464 183.575 179.493 183.423 179.556C183.271 179.618 183.134 179.712 183.021 179.832Z" fill="#E6B96C"/>
<path d="M167.849 246.796C167.356 247.24 166.926 247.748 166.569 248.307C166.275 248.829 166.11 249.415 166.089 250.014C166.068 250.614 166.192 251.209 166.449 251.751C166.743 252.352 167.368 252.925 168.012 252.713C168.551 252.549 168.801 251.953 169.027 251.438C169.696 249.899 170.706 248.552 171.548 247.109C171.885 246.527 173.847 241.957 172.573 242.159C172.024 242.241 170.99 243.703 170.62 244.083L167.849 246.796Z" fill="#E6B96C"/>
<path d="M167.368 241.106C167.004 241.077 166.639 241.077 166.276 241.106C166.094 241.119 165.912 241.089 165.745 241.018C165.578 240.947 165.43 240.837 165.314 240.697C165.263 240.626 165.235 240.543 165.232 240.456C165.232 240.254 165.439 240.11 165.631 240.038C165.826 239.96 166.036 239.925 166.246 239.935C166.456 239.945 166.661 240 166.848 240.095C167.033 240.197 167.182 240.354 167.274 240.543C167.367 240.732 167.4 240.945 167.368 241.154" fill="#E6B96C"/>
<path d="M178.682 239.335C178.504 239.658 178.398 240.129 178.682 240.336C178.794 240.391 178.919 240.415 179.044 240.407C179.169 240.398 179.29 240.357 179.394 240.288C180.012 239.922 180.546 239.43 180.962 238.845C181.496 238.181 181.063 237.791 180.375 237.945C180.013 238.049 179.676 238.226 179.384 238.465C179.093 238.704 178.854 239 178.682 239.335Z" fill="#E6B96C"/>
<path d="M175.271 254.502C175.093 254.647 174.882 254.733 174.704 254.873C174.33 255.232 174.074 255.697 173.973 256.205C173.922 256.311 173.898 256.427 173.903 256.543C173.908 256.66 173.942 256.774 174.002 256.874C174.189 257.086 174.54 256.985 174.781 256.831C175.181 256.555 175.528 256.21 175.805 255.811C176.307 255.141 176.722 254.41 177.042 253.637C177.277 253.074 177.181 252.145 176.368 252.583C175.709 252.934 175.863 254.021 175.271 254.502Z" fill="#E6B96C"/>
<path d="M175.786 247.551C175.384 247.9 175.114 248.375 175.021 248.898C175.015 248.919 175.014 248.942 175.017 248.963C175.021 248.985 175.029 249.006 175.04 249.024C175.052 249.043 175.068 249.059 175.086 249.071C175.104 249.083 175.124 249.092 175.146 249.095C175.343 249.17 175.556 249.191 175.764 249.154C175.971 249.118 176.165 249.026 176.325 248.889C176.964 248.321 176.623 246.657 175.786 247.551Z" fill="#E6B96C"/>
<path d="M182.362 247.523C182.179 247.778 182.078 248.085 181.91 248.35C181.741 248.614 181.635 248.72 181.52 248.918C181.456 249.013 181.411 249.121 181.389 249.234C181.367 249.347 181.367 249.464 181.39 249.577C181.423 249.686 181.494 249.78 181.59 249.841C181.686 249.903 181.801 249.929 181.914 249.913C181.996 249.884 182.071 249.84 182.136 249.783C182.504 249.539 182.821 249.225 183.069 248.86C183.281 248.472 183.378 248.031 183.348 247.59C183.324 246.888 182.665 247.114 182.362 247.523Z" fill="#E6B96C"/>
<path d="M165.117 261.357C165.022 261.592 164.973 261.844 164.972 262.098C164.973 262.225 165.005 262.351 165.065 262.463C165.125 262.576 165.212 262.671 165.319 262.742C165.417 262.794 165.526 262.824 165.638 262.829C165.749 262.834 165.86 262.814 165.963 262.771C166.168 262.685 166.354 262.561 166.511 262.406C166.816 262.157 167.038 261.822 167.146 261.444C167.252 260.987 166.978 260.741 166.632 260.481C165.891 259.972 165.347 260.669 165.117 261.357Z" fill="#E6B96C"/>
<path d="M154.024 261.468C153.74 261.785 153.327 262.098 152.923 261.949C152.518 261.8 152.403 261.304 152.413 260.881C152.482 260.133 152.668 259.401 152.966 258.712C153.052 258.445 153.178 258.194 153.341 257.966C153.425 257.854 153.534 257.762 153.659 257.7C153.784 257.637 153.922 257.605 154.063 257.605C154.765 257.658 155.188 258.813 155.179 259.414C155.169 260.14 154.481 260.958 154.024 261.468Z" fill="#E6B96C"/>
<path d="M83.4084 258.173C82.2127 257.217 81.1124 256.147 80.1229 254.979C79.1334 253.797 78.4981 252.359 78.2902 250.832C78.1941 250.277 78.3073 249.707 78.6077 249.23C78.8645 248.947 79.2036 248.752 79.5772 248.672C79.9508 248.592 80.3402 248.63 80.6905 248.783C81.3833 249.103 81.9791 249.601 82.4174 250.226C83.4143 251.559 84.2839 252.983 85.015 254.478C85.5995 255.422 85.9629 256.486 86.0781 257.591C86.0781 258.206 85.852 259.149 85.0776 259.164C84.534 259.173 83.7932 258.495 83.4084 258.173Z" fill="#E6B96C"/>
<path d="M90.3832 256.234C90.3855 256.152 90.4161 256.074 90.4698 256.013C90.5068 255.981 90.5516 255.959 90.5997 255.95C90.9764 255.867 91.3688 255.893 91.7315 256.024C92.0942 256.155 92.4123 256.386 92.6489 256.691C93.1154 257.305 93.454 258.007 93.6446 258.755C93.714 258.899 93.7528 259.056 93.7585 259.215C93.7643 259.375 93.737 259.534 93.6783 259.683C93.077 260.722 91.8745 259.635 91.456 259.111C90.8114 258.307 90.2678 257.302 90.3832 256.234Z" fill="#E6B96C"/>
<path d="M98.0943 262.642C98.0978 262.607 98.1112 262.573 98.1328 262.545C98.1552 262.527 98.1815 262.514 98.2097 262.507C98.3782 262.472 98.5523 262.476 98.719 262.519C98.8857 262.561 99.0405 262.641 99.1718 262.752C99.439 262.979 99.6681 263.247 99.8501 263.546C100.049 263.817 100.21 264.113 100.331 264.426C100.711 265.528 99.7827 266.221 98.9698 265.345C98.6293 264.99 98.3737 264.562 98.2221 264.094C98.0705 263.625 98.0268 263.129 98.0943 262.642Z" fill="#E6B96C"/>
<path d="M73.826 259.274C73.1028 258.657 72.5567 257.858 72.2434 256.96C72.1676 256.817 72.1279 256.658 72.1279 256.496C72.1279 256.334 72.1676 256.175 72.2434 256.032C72.3443 255.912 72.478 255.823 72.6282 255.777C73.0749 255.642 73.5549 255.667 73.9847 255.849C74.4108 256.032 74.8066 256.279 75.1584 256.58C75.6537 256.978 76.1229 257.407 76.5631 257.865C76.9108 258.169 77.1518 258.577 77.2509 259.029C77.477 261.02 74.5139 259.837 73.826 259.274Z" fill="#E6B96C"/>
<path d="M70.8969 244.05C70.8574 243.977 70.8331 243.896 70.8257 243.814C70.8183 243.731 70.8278 243.647 70.8536 243.569C70.9196 243.47 71.0165 243.397 71.129 243.36C71.2415 243.324 71.363 243.326 71.4741 243.366C72.0562 243.511 73.3983 244.949 72.8258 245.55C72.1572 246.262 71.0893 244.526 70.8969 244.05Z" fill="#E6B96C"/>
<path d="M89.6811 266.144C89.402 265.385 89.1942 264.603 89.0605 263.806C89.2151 263.701 89.3953 263.64 89.5817 263.63C89.7681 263.62 89.9538 263.661 90.1188 263.748C90.4463 263.929 90.7265 264.184 90.9366 264.494C91.416 265.119 91.7927 265.818 92.0526 266.562C92.2883 267.245 92.0526 268.255 91.1194 268.053C90.3786 267.89 89.9024 266.759 89.6811 266.144Z" fill="#E6B96C"/>
<path d="M77.3186 236.921C77.3122 236.801 77.3356 236.682 77.3868 236.573C77.4381 236.465 77.5155 236.371 77.612 236.3C77.7364 236.247 77.8722 236.227 78.0065 236.242H78.4875C78.5824 236.24 78.677 236.254 78.7665 236.286C78.8755 236.338 78.966 236.422 79.0263 236.526C79.4059 237.203 79.5985 237.968 79.5843 238.744C79.607 238.921 79.5956 239.1 79.5506 239.273C79.2716 240.071 78.2518 239.119 77.9728 238.792C77.5278 238.272 77.2943 237.604 77.3186 236.921Z" fill="#E6B96C"/>
<path d="M149.642 198.953C150.749 198.72 151.266 196.731 150.798 194.511C150.329 192.291 149.052 190.681 147.945 190.914C146.839 191.148 146.321 193.137 146.79 195.357C147.259 197.577 148.536 199.187 149.642 198.953Z" fill="#111111"/>
<path d="M168.422 194.477C169.48 194.254 169.957 192.273 169.488 190.053C169.02 187.833 167.783 186.215 166.725 186.438C165.668 186.661 165.19 188.642 165.659 190.861C166.128 193.081 167.365 194.7 168.422 194.477Z" fill="#111111"/>
<path d="M154.225 201.839C155.456 203.003 156.986 203.804 158.645 204.152C160.314 204.492 162.05 204.168 163.486 203.25C164.19 202.783 164.768 202.149 165.168 201.404C165.568 200.66 165.778 199.828 165.779 198.983" stroke="#111111" stroke-width="1.74439" stroke-miterlimit="10" stroke-linecap="round"/>
<path d="M77.9921 162.611C76.8441 164.744 76.2301 167.124 76.2026 169.547C76.2556 171.952 77.2128 174.42 79.0888 175.93C79.607 176.379 80.2342 176.682 80.9071 176.811C83.0958 177.128 84.6688 174.853 85.7848 172.962C87.8951 169.342 90.3831 165.956 93.2072 162.861C95.3141 160.557 98.5899 157.718 98.8497 154.366C99.0998 151.167 95.4151 148.824 92.4375 149.118C89.5754 149.401 87.1846 152.23 85.1354 153.99C82.23 156.477 79.7238 159.147 77.9921 162.611Z" fill="#FFEEC0"/>
<path d="M247.465 242.9C243.679 245.424 241.2 249.442 238.794 253.303C230.651 266.35 221.192 277.571 210.137 288.263C205.325 292.918 201.203 296.068 196.735 301.042C188.95 309.783 183.372 323.17 178.377 333.766C175.004 340.926 171.635 348.16 169.734 355.844C166.781 367.795 167.5 380.303 168.226 392.582C168.86 403.115 169.619 414.088 174.94 423.198C183.893 438.53 202.835 444.267 220.019 448.727C227.111 450.569 234.271 452.419 241.595 452.609C250.206 452.835 258.731 450.752 266.852 447.947C270.998 446.515 271.525 447.242 278.729 442.356C284.888 438.171 289.067 431.661 292.683 425.146C310.741 392.6 327.747 374.637 316.687 319.942C312.898 301.203 300.528 280.255 293.55 262.46C291.343 256.834 289.023 251.091 284.986 246.599C280.057 241.124 274.504 239.976 267.611 240.183C260.646 240.4 253.728 238.727 247.465 242.9Z" fill="#E02A68"/>
<path d="M260.837 203.817C262.457 194.715 263.233 185.49 264.006 176.278L264.564 169.701C264.629 168.903 264.735 168.018 265.33 167.48C266.346 166.564 267.97 167.256 269.021 168.126C271.794 170.426 273.557 173.764 274.527 177.233C275.498 180.702 275.732 184.334 275.888 187.933C276.368 199.052 276.055 210.598 271.306 220.665C270.23 222.941 268.908 225.144 266.966 226.787C265.025 228.43 262.453 229.402 259.978 228.928C259.054 228.782 258.201 228.347 257.541 227.686C255.163 225.107 256.88 220.519 257.667 217.689C258.95 213.134 260.005 208.492 260.837 203.817Z" fill="url(#paint0_linear_1909_4207)"/>
<path d="M286.538 191.771C285.416 192.375 284.378 193.125 283.452 194.001C282.145 195.233 280.914 196.544 279.766 197.925C271.338 207.7 263.287 218.119 258.797 230.218C257.608 233.423 256.664 236.76 256.528 240.178C256.415 242.921 256.814 245.661 257.705 248.258C258.347 250.148 259.313 252.024 260.93 253.195C262.263 254.071 263.8 254.589 265.392 254.7C268.856 255.089 272.733 254.259 274.856 251.492C275.971 250.041 276.476 248.226 276.916 246.464C279.292 236.976 280.566 227.249 282.466 217.649C283.357 213.124 284.407 208.574 286.452 204.44C288.083 201.153 289.719 198.188 290.725 194.626C290.978 193.635 291.452 192.775 290.719 191.894C289.684 190.635 287.731 191.159 286.538 191.771Z" fill="url(#paint1_linear_1909_4207)"/>
<path d="M254.033 202.187C253.07 201.21 251.427 200.758 250.308 201.551C249.044 202.441 249.07 204.28 249.191 205.82C250.23 219.391 248.406 233.051 245.293 246.298C244.277 250.625 243.118 254.999 243.526 259.44C243.934 263.881 246.3 268.409 250.427 270.05C251.502 270.454 252.626 270.714 253.769 270.825C256.974 271.18 260.582 270.754 262.733 268.345C263.832 267.103 264.39 265.478 264.8 263.874C267.189 254.511 264.949 244.664 262.726 235.261L258.593 217.832L256.561 209.237C256.003 206.892 255.813 203.974 254.033 202.187Z" fill="url(#paint2_linear_1909_4207)"/>
<path d="M295.679 193.84C286.967 203.983 279.919 216.129 278.579 229.431C278.335 231.877 278.454 234.726 280.386 236.242C281.093 236.757 281.911 237.099 282.774 237.24C284.697 237.605 286.685 237.343 288.449 236.495C289.93 235.706 291.27 234.676 292.415 233.448C297.159 228.72 300.835 223.03 303.195 216.761C304.743 212.635 305.698 208.315 306.779 204.041C309.027 195.234 311.9 186.317 317.662 179.281C318.481 178.282 322.121 174.231 320.718 172.749C319.896 171.886 315.316 175.781 314.393 176.475C310.04 179.693 305.923 183.217 302.071 187.021C299.837 189.218 297.707 191.492 295.679 193.84Z" fill="url(#paint3_linear_1909_4207)"/>
<path d="M286.303 227.33C277.522 234.428 269.865 243.068 264.733 253.13C263.357 255.819 262.138 258.78 262.526 261.776C263.032 265.687 266.328 268.856 270.092 270.03C273.856 271.203 277.977 270.653 281.707 269.365C284.629 268.362 287.527 266.801 289.192 264.195C290.08 262.801 290.564 261.194 291.225 259.673C291.974 257.953 292.959 256.344 293.857 254.694C298.488 246.157 300.871 236.44 306.612 228.635C307.336 227.743 307.971 226.783 308.51 225.768C308.931 224.754 309.263 223.705 309.504 222.634C310.118 220.403 311.007 218.258 312.152 216.247C312.79 215.128 315.868 212.133 315.865 210.947C315.861 208.734 309.015 212.855 307.872 213.452C300.24 217.351 293.015 222 286.303 227.33Z" fill="url(#paint4_linear_1909_4207)"/>
<path d="M238.133 281.372C220.209 289.946 202.879 301.994 194.076 319.802C192.151 323.875 190.499 328.071 189.13 332.364C184.671 345.573 180.839 359.086 180.026 372.985C179.214 386.884 181.603 401.263 188.886 413.128C197.44 427.071 212.693 436.684 228.962 438.388C248.17 440.398 267.849 431.346 279.958 416.289C284.068 411.174 287.353 405.449 290.38 399.627C298.196 384.562 304.354 368.449 306.523 351.624C308.693 334.799 306.587 317.137 298.672 302.126C296.124 297.31 292.892 292.658 288.334 289.662C285.001 287.469 280.596 284.619 276.958 282.987C269.952 279.847 263.781 279.036 257.403 278.297C250.818 277.473 244.135 278.539 238.133 281.372Z" fill="#EDE8EC"/>
<path d="M237.258 349.564C238.14 347.943 238.09 346.213 237.147 345.699C236.203 345.185 234.722 346.082 233.839 347.702C232.957 349.322 233.006 351.053 233.95 351.567C234.894 352.081 236.375 351.184 237.258 349.564Z" fill="#242728"/>
<path d="M258.456 355.366C259.339 353.745 259.289 352.015 258.345 351.501C257.401 350.987 255.921 351.884 255.038 353.504C254.155 355.124 254.205 356.855 255.149 357.369C256.093 357.883 257.574 356.986 258.456 355.366Z" fill="#242728"/>
<path d="M234.448 293.779C233.909 294.036 233.437 294.417 233.072 294.89C232.315 295.799 231.786 296.877 231.53 298.032C231.505 298.085 231.492 298.142 231.493 298.2C231.494 298.259 231.508 298.316 231.535 298.367C231.562 298.419 231.6 298.464 231.647 298.498C231.694 298.532 231.748 298.555 231.805 298.565C232.548 298.81 233.356 298.769 234.07 298.449C234.782 298.138 235.434 297.707 235.997 297.173C236.888 296.387 237.728 295.435 237.915 294.265C237.933 294.191 237.929 294.113 237.903 294.04C237.868 293.976 237.816 293.923 237.753 293.886C236.928 293.347 235.361 293.391 234.448 293.779Z" fill="#353535"/>
<path d="M248.107 313.685C247.648 314.501 247.285 315.366 247.023 316.264C246.88 316.825 246.756 317.474 247.116 317.931C247.307 318.131 247.55 318.273 247.818 318.341C248.087 318.41 248.368 318.402 248.632 318.318C249.879 318.021 250.745 316.913 251.433 315.83C251.954 315.005 253.445 312.97 251.673 312.841C251.117 312.806 250.613 312.95 250.032 312.886C249.082 312.712 248.62 312.78 248.107 313.685Z" fill="#353535"/>
<path d="M260.307 302.641C260.274 302.792 260.269 302.948 260.291 303.1C260.327 303.223 260.382 303.34 260.453 303.447L261.702 305.534C261.927 306.007 262.283 306.404 262.728 306.68C262.754 306.699 262.784 306.711 262.816 306.717C262.847 306.722 262.88 306.72 262.91 306.711C262.941 306.702 262.969 306.686 262.992 306.664C263.015 306.642 263.033 306.615 263.044 306.585C263.753 305.53 265.576 301.922 264.281 300.925C263.796 300.556 262.57 300.373 261.976 300.416C260.709 300.504 260.567 301.62 260.307 302.641Z" fill="#353535"/>
<path d="M209.672 328.003C209.45 328.474 209.298 329.069 209.596 329.497C209.819 329.753 210.093 329.96 210.401 330.103C210.708 330.247 211.043 330.325 211.382 330.332C211.967 330.181 212.233 329.517 212.404 328.941C212.685 328.05 212.898 327.138 213.039 326.215C213.393 323.598 210.077 327.176 209.672 328.003Z" fill="#353535"/>
<path d="M191.154 361.626C191.177 362.15 191.331 362.745 191.789 362.982C191.954 363.054 192.131 363.099 192.31 363.115C192.555 363.182 192.811 363.195 193.061 363.155C193.311 363.114 193.549 363.02 193.759 362.878C194.202 362.468 194.128 361.76 194.01 361.17C193.846 360.253 193.612 359.35 193.311 358.469C192.383 355.992 191.115 360.709 191.154 361.626Z" fill="#353535"/>
<path d="M280.997 319.497C281.003 319.258 281.063 319.023 281.173 318.811C281.282 318.598 281.438 318.413 281.629 318.27C281.826 318.181 282.044 318.155 282.256 318.194C282.467 318.233 282.662 318.336 282.814 318.489C283.113 318.8 283.314 319.192 283.391 319.617C283.573 320.544 283.624 321.492 283.543 322.433C283.54 323.283 283.439 324.13 283.241 324.957C282.926 326.047 281.027 325.165 280.816 324.338C280.529 322.73 280.591 321.079 280.997 319.497Z" fill="#353535"/>
<path d="M287.618 358.022C287.66 357.844 287.737 357.675 287.842 357.524C288.015 357.357 288.245 357.26 288.486 357.254C288.726 357.247 288.961 357.332 289.142 357.49C290.438 358.525 290.409 361.595 290.058 363.079C290.042 363.241 289.994 363.399 289.916 363.542C289.839 363.685 289.733 363.811 289.605 363.912C289.477 364.013 289.33 364.087 289.173 364.129C289.015 364.172 288.851 364.182 288.69 364.16C287.556 364.088 287.108 362.942 286.994 361.954C286.84 360.619 287.235 359.285 287.618 358.022Z" fill="#242728"/>
<path d="M297.858 344.812C297.912 345.065 298.029 345.301 298.2 345.497C298.37 345.693 298.587 345.842 298.831 345.93C298.964 345.973 299.107 345.979 299.243 345.947C299.361 345.911 299.472 345.853 299.569 345.776C300.687 345.025 303.023 342.525 302.13 341.019C301.483 339.929 299.542 340.132 298.816 341.021C298.089 341.909 297.586 343.72 297.858 344.812Z" fill="#242728"/>
<path d="M272.874 398.056C272.828 398.184 272.812 398.321 272.828 398.456C272.866 398.581 272.946 398.69 273.054 398.763C273.163 398.836 273.294 398.87 273.424 398.858C273.688 398.826 273.936 398.715 274.135 398.539C275.013 397.875 277.971 393.247 276.666 392.683C274.754 391.852 273.181 397.037 272.874 398.056Z" fill="#242728"/>
<path d="M286.266 348.176C286.226 348.274 286.215 348.382 286.233 348.487C286.29 348.598 286.377 348.691 286.485 348.754C286.592 348.818 286.715 348.849 286.84 348.845C287.084 348.845 287.323 348.776 287.53 348.646C288.361 348.183 291.086 344.741 289.779 344.204C287.851 343.415 286.525 347.395 286.266 348.176Z" fill="#242728"/>
<path d="M196.145 371.79C196.088 371.923 196.063 372.067 196.071 372.211C196.079 372.356 196.121 372.496 196.192 372.621C196.33 372.759 196.508 372.849 196.701 372.876L197.648 373.118C197.814 373.176 197.992 373.191 198.165 373.162C198.362 373.083 198.531 372.945 198.645 372.766C199.665 371.439 202.428 366.215 199.966 365.124C197.16 363.88 196.522 370.35 196.145 371.79Z" fill="#242728"/>
<path d="M197.071 288.118C198.851 283.176 201.957 278.822 205.316 274.782C208.675 270.743 212.324 266.944 215.443 262.719C213.042 269.414 211.698 276.443 211.459 283.552C211.343 286.998 211.47 290.548 210.24 293.77C209.623 295.295 208.811 296.734 207.824 298.05C205.749 300.94 203.076 303.632 199.65 304.6C196.108 305.602 195.907 300.678 195.67 298.16C195.396 294.75 195.875 291.322 197.071 288.118Z" fill="#E02A68"/>
<path d="M166.898 364.909C163.023 358.639 159.192 351.922 158.925 344.555C158.884 342.463 159.026 340.372 159.35 338.305C159.79 335.093 160.395 331.906 161.162 328.756C161.545 327.047 162.073 325.373 162.739 323.753C163.567 321.98 164.535 320.276 165.632 318.656L169.252 312.998C168.162 318.829 168.652 324.845 170.668 330.424C172.364 335.096 175.107 339.397 176.217 344.243C177.75 350.929 175.97 357.903 173.746 364.389C173.318 365.631 172.162 369.635 170.481 369.674C168.921 369.711 167.572 366.002 166.898 364.909Z" fill="#E02A68"/>
<path d="M171.408 422.764C166.919 418.304 162.554 413.645 159.476 408.116C156.398 402.586 154.772 396.044 156.138 389.876C160.994 393.281 163.442 399.067 166.391 404.216C169.19 409.096 172.604 413.6 175.453 418.451C176.408 420.077 177.296 421.741 178.117 423.444C178.611 424.464 180.096 426.661 179.386 427.882C178.199 429.921 172.486 423.835 171.408 422.764Z" fill="#E02A68"/>
<path d="M288.54 431.188C292.877 428.847 297.26 426.471 301.976 425.093C305.626 424.011 309.467 423.505 312.956 421.966C311.137 423.237 309.299 424.527 307.85 426.217C305.711 428.702 304.552 431.882 302.677 434.569C300.272 437.873 296.94 440.387 293.104 441.794C289.274 443.187 285.187 443.733 281.126 443.393C279.811 443.303 277.311 443.142 277.154 441.454C277.045 440.07 278.805 438.251 279.663 437.337C282.147 434.675 285.382 432.881 288.54 431.188Z" fill="#E02A68"/>
<path d="M299.26 416.842C300.755 416.788 302.049 415.85 303.236 414.954L307.168 411.987C308.299 411.194 309.346 410.287 310.293 409.281C311.502 407.9 312.315 406.22 313.113 404.563L317.852 394.697C318.66 393.019 319.467 391.342 320.149 389.614C321.621 385.875 322.503 381.93 323.913 378.166C325.322 374.402 327.356 370.714 330.588 368.332C329.597 368.009 328.526 368.379 327.566 368.787C321.735 371.284 316.67 375.392 312.609 380.243C308.547 385.093 305.467 390.745 303.045 396.606C302.182 398.7 301.406 400.816 300.487 402.84C299.691 404.618 298.782 406.348 297.874 408.074L296.066 411.528C295.671 412.279 294.446 413.817 294.507 414.684C294.609 416.279 298.072 416.89 299.26 416.842Z" fill="#E02A68"/>
<path d="M316.238 318.235C318.109 310.146 322.49 302.808 327.818 296.439C325.436 305.319 328.075 314.707 327.841 323.894C327.781 326.142 327.548 328.378 327.293 330.609C326.622 336.376 325.678 342.378 322.29 347.095C321.979 347.596 321.554 348.018 321.05 348.324C320.235 348.746 319.251 348.592 318.348 348.431C317.194 348.22 315.899 347.926 315.273 346.933C314.825 346.222 314.831 345.33 314.837 344.508C314.879 342.081 314.863 339.65 314.787 337.215C314.714 334.924 314.284 332.458 314.581 330.188C314.797 328.563 315.372 327.09 315.445 325.424C315.498 323.009 315.764 320.603 316.238 318.235Z" fill="#E02A68"/>
<path d="M237.697 357.237C238.798 359.342 240.384 360.801 242.257 361.43C244.129 362.059 246.205 361.831 248.224 360.774" stroke="#242728" stroke-width="2.21494" stroke-miterlimit="10" stroke-linecap="round"/>
</g>
<defs>
<linearGradient id="paint0_linear_1909_4207" x1="257.694" y1="232.617" x2="266.663" y2="200.556" gradientUnits="userSpaceOnUse">
<stop offset="0.14" stop-color="#F8FF98"/>
<stop offset="0.32" stop-color="#BAD670"/>
<stop offset="0.49" stop-color="#83B14C"/>
<stop offset="0.65" stop-color="#57932F"/>
<stop offset="0.79" stop-color="#377E1B"/>
<stop offset="0.92" stop-color="#24720E"/>
<stop offset="1" stop-color="#1D6D0A"/>
</linearGradient>
<linearGradient id="paint1_linear_1909_4207" x1="265.097" y1="248.057" x2="272.365" y2="221.518" gradientUnits="userSpaceOnUse">
<stop stop-color="#F8FF98"/>
<stop offset="0.21" stop-color="#C0DA74"/>
<stop offset="0.49" stop-color="#7BAB47"/>
<stop offset="0.72" stop-color="#488A26"/>
<stop offset="0.9" stop-color="#297512"/>
<stop offset="1" stop-color="#1D6D0A"/>
</linearGradient>
<linearGradient id="paint2_linear_1909_4207" x1="248.962" y1="264.326" x2="257.392" y2="232.169" gradientUnits="userSpaceOnUse">
<stop stop-color="#F8FF98"/>
<stop offset="0.06" stop-color="#E3F18A"/>
<stop offset="0.25" stop-color="#A7C964"/>
<stop offset="0.43" stop-color="#76A844"/>
<stop offset="0.6" stop-color="#4F8F2B"/>
<stop offset="0.76" stop-color="#347C19"/>
<stop offset="0.9" stop-color="#23710E"/>
<stop offset="1" stop-color="#1D6D0A"/>
</linearGradient>
<linearGradient id="paint3_linear_1909_4207" x1="289.243" y1="242.015" x2="296.869" y2="212.097" gradientUnits="userSpaceOnUse">
<stop stop-color="#F8FF98"/>
<stop offset="0.06" stop-color="#E3F18A"/>
<stop offset="0.25" stop-color="#A7C964"/>
<stop offset="0.43" stop-color="#76A844"/>
<stop offset="0.6" stop-color="#4F8F2B"/>
<stop offset="0.76" stop-color="#347C19"/>
<stop offset="0.9" stop-color="#23710E"/>
<stop offset="1" stop-color="#1D6D0A"/>
</linearGradient>
<linearGradient id="paint4_linear_1909_4207" x1="279.082" y1="271.69" x2="289.668" y2="233.298" gradientUnits="userSpaceOnUse">
<stop stop-color="#F8FF98"/>
<stop offset="0.06" stop-color="#E3F18A"/>
<stop offset="0.25" stop-color="#A7C964"/>
<stop offset="0.43" stop-color="#76A844"/>
<stop offset="0.6" stop-color="#4F8F2B"/>
<stop offset="0.76" stop-color="#347C19"/>
<stop offset="0.9" stop-color="#23710E"/>
<stop offset="1" stop-color="#1D6D0A"/>
</linearGradient>
<clipPath id="clip0_1909_4207">
<rect width="390" height="844" fill="white"/>
</clipPath>
</defs>
</svg>
